<svg xmlns="http://www.w3.org/2000/svg" viewBox="0 0 24 24"><path d="M6 19h5v1h-1c-.6 0-1 .4-1 1s.4 1 1 1h4c.6 0 1-.4 1-1s-.4-1-1-1h-1v-1h5c2.2 0 4-1.8 4-4V8c0-2.2-1.8-4-4-4H6C3.8 4 2 5.8 2 8v7c0 2.2 1.8 4 4 4zm12-2H6c-.7 0-1.4-.4-1.7-1h15.4c-.3.6-1 1-1.7 1zM6 6h12c1.1 0 2 .9 2 2v6H4V8c0-1.1.9-2 2-2z"/><path d="M9.3 12.7c.2.2.4.3.7.3s.5-.1.7-.3c.4-.4.4-1 0-1.4L9.4 10l1.3-1.3c.4-.4.4-1 0-1.4s-1-.4-1.4 0l-2 2c-.4.4-.4 1 0 1.4l2 2zm4 0c.2.2.5.3.7.3s.5-.1.7-.3l2-2c.4-.4.4-1 0-1.4l-2-2c-.4-.4-1-.4-1.4 0s-.4 1 0 1.4l1.3 1.3-1.3 1.3c-.4.4-.4 1 0 1.4z"/></svg>