<svg xmlns="http://www.w3.org/2000/svg" enable-background="new 0 0 24 24" viewBox="0 0 24 24"><path d="M18,4H6C3.7944,4,2,5.7939,2,8v8c0,2.2061,1.7944,4,4,4h12c2.2056,0,4-1.7939,4-4V8C22,5.7939,20.2056,4,18,4z M20,16
			c0,1.1025-0.897,2-2,2H6c-1.103,0-2-0.8975-2-2v-6h16V16z M4,8c0-1.1025,0.897-2,2-2h12c1.103,0,2,0.8975,2,2H4z"/><path d="M9.5,16.0205l2,1.1553c0.1548,0.0889,0.3271,0.1338,0.5,0.1338s0.3452-0.0449,0.5-0.1338l2-1.1553
			c0.3096-0.1787,0.5-0.5088,0.5-0.8662v-2.3086c0-0.3574-0.1904-0.6875-0.5-0.8662l-2-1.1553c-0.3096-0.1777-0.6904-0.1777-1,0
			l-2,1.1553C9.1904,12.1582,9,12.4883,9,12.8457v2.3086C9,15.5117,9.1904,15.8418,9.5,16.0205z M11,13.4229l1-0.5771l1,0.5771
			v1.1543l-1,0.5771l-1-0.5771V13.4229z"/></svg>